<svg width="787" height="699" viewBox="0 0 787 699" fill="none" xmlns="http://www.w3.org/2000/svg">
<g clip-path="url(#clip0_1_2)">
<path d="M702.878 343.54C702.989 435.209 667.556 523.352 604.028 589.44C600.198 593.45 596.265 597.363 592.228 601.18C586.078 607.03 579.721 612.653 573.158 618.05C511.76 668.634 435.112 697.059 355.578 698.74C352.928 698.8 350.268 698.83 347.598 698.83C284.168 698.83 204.388 664.95 131.988 618.05C125.998 614.17 120.061 610.2 114.178 606.14C111.428 604.26 108.691 602.353 105.968 600.42C78.0443 580.702 51.5391 559.049 26.648 535.62C10.3509 520.325 -4.93155 503.983 -19.102 486.7C-74.732 418.08 -87.002 356.25 -7.69199 343.54C1.69801 342.04 10.8113 340.436 19.648 338.73C32.4481 336.27 44.6981 333.613 56.398 330.76C72.158 326.93 86.9647 322.776 100.818 318.3C105.478 316.8 110.031 315.27 114.478 313.71C180.218 290.62 224.218 260.51 254.168 227.84C259.248 222.31 263.931 216.713 268.218 211.05C274.777 202.429 280.734 193.368 286.048 183.93C293.383 170.816 299.543 157.079 304.458 142.88L304.728 142.1C328.558 73.3596 321.308 9.59956 347.598 -11.7404C459.978 -102.97 599.888 26.9496 665.558 180.16C668.868 187.88 671.981 195.646 674.898 203.46C676.208 206.95 677.471 210.446 678.688 213.95C681.888 223.08 684.791 232.233 687.398 241.41C688.398 244.91 689.351 248.406 690.258 251.9C691.228 255.67 692.158 259.43 693.018 263.19C699.408 290.72 702.878 317.87 702.878 343.54Z" fill="#F2F2F2"/>
<path d="M355.578 698.74C352.928 698.8 350.268 698.83 347.598 698.83C284.168 698.83 204.388 664.95 131.988 618.05C125.998 614.17 120.061 610.2 114.178 606.14L119.338 574.74L275.548 554L353.948 613.95L355.578 698.74Z" fill="#2F2E41"/>
<path d="M363.098 138.05H340.838C340.149 138.05 339.487 138.324 339 138.811C338.512 139.299 338.238 139.96 338.238 140.649V162.919C338.238 163.26 338.306 163.598 338.437 163.913C338.568 164.227 338.759 164.513 339.001 164.754C339.242 164.994 339.529 165.185 339.844 165.315C340.159 165.444 340.497 165.511 340.838 165.51H363.098C363.786 165.51 364.446 165.237 364.933 164.752C365.421 164.266 365.696 163.607 365.698 162.919V140.649C365.696 139.961 365.421 139.3 364.934 138.813C364.447 138.326 363.787 138.052 363.098 138.05Z" fill="white"/>
<path d="M363.098 176H340.838C340.149 176 339.487 176.274 339 176.761C338.512 177.249 338.238 177.91 338.238 178.6V200.87C338.238 201.21 338.306 201.548 338.437 201.863C338.568 202.177 338.759 202.463 339.001 202.704C339.242 202.944 339.529 203.135 339.844 203.265C340.159 203.394 340.497 203.461 340.838 203.46H363.098C363.786 203.46 364.446 203.187 364.933 202.702C365.421 202.216 365.696 201.557 365.698 200.87V178.6C365.696 177.911 365.421 177.25 364.934 176.763C364.447 176.276 363.787 176.002 363.098 176Z" fill="#E6E6E6"/>
<path d="M363.098 213.95H340.838C340.149 213.95 339.487 214.224 339 214.711C338.512 215.199 338.238 215.86 338.238 216.55V238.81C338.237 239.151 338.304 239.49 338.435 239.805C338.565 240.121 338.757 240.408 338.998 240.65C339.24 240.891 339.526 241.083 339.842 241.213C340.158 241.343 340.496 241.41 340.838 241.409H363.098C363.787 241.409 364.449 241.135 364.936 240.648C365.424 240.16 365.698 239.499 365.698 238.81V216.55C365.696 215.861 365.421 215.2 364.934 214.713C364.447 214.226 363.787 213.952 363.098 213.95Z" fill="#E6E6E6"/>
<path d="M365.658 254.04C365.547 253.441 365.231 252.899 364.763 252.509C364.296 252.118 363.707 251.903 363.098 251.899H340.838C340.149 251.9 339.487 252.174 339 252.661C338.512 253.149 338.238 253.81 338.238 254.5V276.76C338.237 277.101 338.304 277.44 338.435 277.755C338.565 278.071 338.756 278.358 338.998 278.6C339.24 278.841 339.526 279.033 339.842 279.163C340.158 279.293 340.496 279.36 340.838 279.36H363.098C363.787 279.359 364.449 279.085 364.936 278.598C365.424 278.11 365.698 277.449 365.698 276.76V254.5C365.7 254.345 365.687 254.191 365.658 254.04Z" fill="#E6E6E6"/>
<path d="M364.108 290.05C363.788 289.917 363.445 289.849 363.098 289.85H340.838C340.496 289.849 340.158 289.916 339.842 290.046C339.527 290.177 339.24 290.368 338.998 290.61C338.757 290.851 338.565 291.138 338.435 291.454C338.304 291.77 338.238 292.108 338.238 292.45V314.71C338.237 315.051 338.303 315.39 338.433 315.706C338.563 316.022 338.754 316.31 338.996 316.551C339.238 316.793 339.525 316.985 339.841 317.115C340.157 317.245 340.496 317.311 340.838 317.31H363.098C363.788 317.309 364.449 317.035 364.936 316.548C365.424 316.06 365.698 315.399 365.698 314.71V292.45C365.697 291.938 365.546 291.438 365.263 291.011C364.98 290.585 364.579 290.25 364.108 290.05Z" fill="#E6E6E6"/>
<path d="M409.858 138.05H387.598C386.909 138.05 386.247 138.324 385.76 138.811C385.272 139.299 384.998 139.96 384.998 140.649V162.919C384.998 163.26 385.066 163.598 385.197 163.913C385.328 164.227 385.519 164.513 385.761 164.754C386.002 164.994 386.289 165.185 386.604 165.315C386.919 165.444 387.257 165.511 387.598 165.51H409.858C410.546 165.51 411.206 165.237 411.693 164.752C412.181 164.266 412.456 163.607 412.458 162.919V140.649C412.456 139.961 412.181 139.3 411.694 138.813C411.207 138.326 410.547 138.052 409.858 138.05Z" fill="#E6E6E6"/>
<path d="M409.858 176H387.598C386.909 176 386.247 176.274 385.76 176.761C385.272 177.249 384.998 177.91 384.998 178.6V200.87C384.998 201.21 385.066 201.548 385.197 201.863C385.328 202.177 385.519 202.463 385.761 202.704C386.002 202.944 386.289 203.135 386.604 203.265C386.919 203.394 387.257 203.461 387.598 203.46H409.858C410.546 203.46 411.206 203.187 411.693 202.702C412.181 202.216 412.456 201.557 412.458 200.87V178.6C412.456 177.911 412.181 177.25 411.694 176.763C411.207 176.276 410.547 176.002 409.858 176Z" fill="#FF0000"/>
<path d="M409.858 213.95H387.598C386.909 213.95 386.247 214.224 385.76 214.711C385.272 215.199 384.998 215.86 384.998 216.55V238.81C384.997 239.151 385.064 239.49 385.195 239.805C385.325 240.121 385.517 240.408 385.758 240.65C386 240.891 386.287 241.083 386.602 241.213C386.918 241.343 387.256 241.41 387.598 241.409H409.858C410.547 241.409 411.209 241.135 411.696 240.648C412.184 240.16 412.458 239.499 412.458 238.81V216.55C412.456 215.861 412.181 215.2 411.694 214.713C411.207 214.226 410.547 213.952 409.858 213.95Z" fill="#FF0000"/>
<path d="M409.858 251.899H387.598C387.053 251.9 386.522 252.072 386.08 252.392C385.639 252.711 385.309 253.162 385.138 253.679C385.046 253.943 384.998 254.22 384.998 254.5V276.76C384.997 277.101 385.064 277.44 385.195 277.755C385.325 278.071 385.516 278.358 385.758 278.6C386 278.841 386.286 279.033 386.602 279.163C386.918 279.293 387.256 279.36 387.598 279.36H409.858C410.547 279.359 411.209 279.085 411.696 278.598C412.184 278.11 412.458 277.449 412.458 276.76V254.5C412.456 253.811 412.181 253.15 411.694 252.663C411.207 252.176 410.547 251.902 409.858 251.899Z" fill="#FF0000"/>
<path d="M409.858 289.85H387.598C387.256 289.849 386.918 289.916 386.602 290.046C386.287 290.177 386 290.368 385.758 290.61C385.517 290.851 385.325 291.138 385.195 291.454C385.064 291.77 384.997 292.108 384.998 292.45V314.71C384.997 315.051 385.064 315.39 385.195 315.705C385.325 316.021 385.517 316.308 385.758 316.55C386 316.791 386.287 316.983 386.602 317.113C386.918 317.244 387.256 317.31 387.598 317.31H409.858C410.547 317.309 411.209 317.035 411.696 316.548C412.184 316.06 412.458 315.399 412.458 314.71V292.45C412.458 291.76 412.184 291.099 411.696 290.611C411.209 290.124 410.547 289.85 409.858 289.85Z" fill="#E6E6E6"/>
<path d="M456.618 138.05H434.358C433.669 138.05 433.007 138.324 432.52 138.811C432.032 139.299 431.758 139.96 431.758 140.649V162.919C431.758 163.26 431.826 163.598 431.957 163.913C432.088 164.227 432.279 164.513 432.521 164.754C432.762 164.994 433.049 165.185 433.364 165.315C433.679 165.444 434.017 165.511 434.358 165.51H456.618C457.306 165.51 457.966 165.237 458.453 164.752C458.941 164.266 459.216 163.607 459.218 162.919V140.649C459.216 139.961 458.941 139.3 458.454 138.813C457.967 138.326 457.307 138.052 456.618 138.05Z" fill="#FF0000"/>
<path d="M456.618 176H434.358C433.669 176 433.007 176.274 432.52 176.761C432.032 177.249 431.758 177.91 431.758 178.6V200.87C431.758 201.21 431.826 201.548 431.957 201.863C432.088 202.177 432.279 202.463 432.521 202.704C432.762 202.944 433.049 203.135 433.364 203.265C433.679 203.394 434.017 203.461 434.358 203.46H456.618C457.306 203.46 457.966 203.187 458.453 202.702C458.941 202.216 459.216 201.557 459.218 200.87V178.6C459.216 177.911 458.941 177.25 458.454 176.763C457.967 176.276 457.307 176.002 456.618 176Z" fill="#FF0000"/>
<path d="M456.618 213.95H434.358C433.669 213.95 433.007 214.224 432.52 214.711C432.032 215.199 431.758 215.86 431.758 216.55V238.81C431.757 239.151 431.824 239.49 431.955 239.805C432.085 240.121 432.277 240.408 432.518 240.65C432.76 240.891 433.047 241.083 433.362 241.213C433.678 241.343 434.016 241.41 434.358 241.409H456.618C457.307 241.409 457.969 241.135 458.456 240.648C458.944 240.16 459.218 239.499 459.218 238.81V216.55C459.216 215.861 458.941 215.2 458.454 214.713C457.967 214.226 457.307 213.952 456.618 213.95Z" fill="#E6E6E6"/>
<path d="M456.618 251.899H434.358C433.669 251.9 433.007 252.174 432.52 252.661C432.033 253.149 431.758 253.81 431.758 254.5V276.76C431.757 277.101 431.824 277.44 431.955 277.755C432.085 278.071 432.277 278.358 432.518 278.6C432.76 278.841 433.047 279.033 433.362 279.163C433.678 279.293 434.016 279.36 434.358 279.36H456.618C457.307 279.359 457.969 279.085 458.456 278.598C458.944 278.11 459.218 277.449 459.218 276.76V254.5C459.216 253.811 458.941 253.15 458.454 252.663C457.967 252.176 457.307 251.902 456.618 251.899Z" fill="#FF0000"/>
<path d="M456.618 289.85H434.358C434.016 289.849 433.678 289.916 433.362 290.046C433.047 290.177 432.76 290.368 432.518 290.61C432.277 290.851 432.085 291.138 431.955 291.454C431.824 291.77 431.757 292.108 431.758 292.45V314.71C431.757 315.051 431.824 315.39 431.955 315.705C432.085 316.021 432.277 316.308 432.518 316.55C432.76 316.791 433.047 316.983 433.362 317.113C433.678 317.244 434.016 317.31 434.358 317.31H456.618C457.308 317.309 457.969 317.035 458.456 316.548C458.944 316.06 459.218 315.399 459.218 314.71V292.45C459.218 291.76 458.944 291.099 458.456 290.611C457.969 290.124 457.307 289.85 456.618 289.85Z" fill="#FF0000"/>
<path d="M503.378 138.05H481.118C480.429 138.05 479.767 138.324 479.28 138.811C478.792 139.299 478.518 139.96 478.518 140.649V162.919C478.518 163.26 478.586 163.598 478.717 163.913C478.848 164.227 479.039 164.513 479.281 164.754C479.522 164.994 479.809 165.185 480.124 165.315C480.439 165.444 480.777 165.511 481.118 165.51H503.378C504.066 165.51 504.726 165.237 505.213 164.752C505.701 164.266 505.976 163.607 505.978 162.919V140.649C505.976 139.961 505.701 139.3 505.214 138.813C504.727 138.326 504.067 138.052 503.378 138.05Z" fill="#FF0000"/>
<path d="M503.378 176H481.118C480.429 176 479.767 176.274 479.28 176.761C478.792 177.249 478.518 177.91 478.518 178.6V200.87C478.518 201.21 478.586 201.548 478.717 201.863C478.848 202.177 479.039 202.463 479.281 202.704C479.522 202.944 479.809 203.135 480.124 203.265C480.439 203.394 480.777 203.461 481.118 203.46H503.378C504.066 203.46 504.726 203.187 505.213 202.702C505.701 202.216 505.976 201.557 505.978 200.87V178.6C505.976 177.911 505.701 177.25 505.214 176.763C504.727 176.276 504.067 176.002 503.378 176Z" fill="white"/>
<path d="M503.378 213.95H481.118C480.429 213.95 479.767 214.224 479.28 214.711C478.792 215.199 478.518 215.86 478.518 216.55V238.81C478.517 239.151 478.584 239.49 478.715 239.805C478.845 240.121 479.036 240.408 479.278 240.65C479.52 240.891 479.806 241.083 480.122 241.213C480.438 241.343 480.776 241.41 481.118 241.409H503.378C504.067 241.409 504.729 241.135 505.216 240.648C505.704 240.16 505.978 239.499 505.978 238.81V216.55C505.976 215.861 505.701 215.2 505.214 214.713C504.727 214.226 504.067 213.952 503.378 213.95Z" fill="white"/>
<path d="M503.378 251.899H481.118C480.429 251.9 479.767 252.174 479.28 252.661C478.792 253.149 478.518 253.81 478.518 254.5V276.76C478.517 277.101 478.584 277.44 478.715 277.755C478.845 278.071 479.036 278.358 479.278 278.6C479.52 278.841 479.806 279.033 480.122 279.163C480.438 279.293 480.776 279.36 481.118 279.36H503.378C504.067 279.359 504.729 279.085 505.216 278.598C505.704 278.11 505.978 277.449 505.978 276.76V254.5C505.976 253.811 505.701 253.15 505.214 252.663C504.727 252.176 504.067 251.902 503.378 251.899Z" fill="#E6E6E6"/>
<path d="M503.378 289.85H481.118C480.776 289.849 480.438 289.916 480.122 290.046C479.806 290.177 479.52 290.368 479.278 290.61C479.036 290.851 478.845 291.138 478.715 291.454C478.584 291.77 478.517 292.108 478.518 292.45V314.71C478.517 315.051 478.584 315.39 478.715 315.705C478.845 316.021 479.036 316.308 479.278 316.55C479.52 316.791 479.806 316.983 480.122 317.113C480.438 317.244 480.776 317.31 481.118 317.31H503.378C504.067 317.309 504.729 317.035 505.216 316.548C505.704 316.06 505.978 315.399 505.978 314.71V292.45C505.978 291.76 505.704 291.099 505.216 290.611C504.729 290.124 504.067 289.85 503.378 289.85Z" fill="#FF0000"/>
<path d="M550.138 138.05H527.868C527.18 138.052 526.521 138.327 526.036 138.814C525.55 139.302 525.278 139.962 525.278 140.649V162.919C525.278 163.606 525.551 164.265 526.037 164.751C526.522 165.236 527.181 165.509 527.868 165.51H550.138C550.826 165.51 551.486 165.237 551.973 164.752C552.461 164.266 552.736 163.607 552.738 162.919V140.649C552.736 139.961 552.461 139.3 551.974 138.813C551.487 138.326 550.827 138.052 550.138 138.05Z" fill="white"/>
<path d="M550.138 176H527.868C527.18 176.002 526.521 176.277 526.036 176.764C525.55 177.252 525.278 177.912 525.278 178.6V200.87C525.278 201.556 525.551 202.215 526.037 202.701C526.522 203.187 527.181 203.459 527.868 203.46H550.138C550.826 203.46 551.486 203.187 551.973 202.702C552.461 202.216 552.736 201.557 552.738 200.87V178.6C552.736 177.911 552.461 177.25 551.974 176.763C551.487 176.276 550.827 176.002 550.138 176Z" fill="white"/>
<path d="M550.138 213.95H527.868C527.18 213.952 526.521 214.227 526.036 214.714C525.55 215.202 525.278 215.862 525.278 216.55V238.81C525.277 239.15 525.343 239.488 525.473 239.803C525.603 240.119 525.793 240.405 526.034 240.647C526.274 240.888 526.56 241.08 526.875 241.211C527.19 241.342 527.527 241.409 527.868 241.409H550.138C550.827 241.409 551.489 241.135 551.976 240.648C552.464 240.16 552.738 239.499 552.738 238.81V216.55C552.736 215.861 552.461 215.2 551.974 214.713C551.487 214.226 550.827 213.952 550.138 213.95Z" fill="white"/>
<path d="M550.138 251.899H527.868C527.18 251.902 526.521 252.177 526.036 252.664C525.55 253.152 525.278 253.812 525.278 254.5V276.76C525.277 277.1 525.343 277.438 525.473 277.753C525.603 278.069 525.793 278.355 526.034 278.597C526.274 278.838 526.56 279.03 526.875 279.161C527.19 279.292 527.527 279.359 527.868 279.36H550.138C550.827 279.359 551.489 279.085 551.976 278.598C552.464 278.11 552.738 277.449 552.738 276.76V254.5C552.736 253.811 552.461 253.15 551.974 252.663C551.487 252.176 550.827 251.902 550.138 251.899Z" fill="#FF0000"/>
<path d="M550.138 289.85H527.868C527.527 289.85 527.19 289.917 526.875 290.048C526.56 290.179 526.274 290.371 526.034 290.612C525.793 290.854 525.603 291.141 525.473 291.456C525.343 291.771 525.277 292.109 525.278 292.45V314.71C525.277 315.05 525.343 315.388 525.473 315.703C525.603 316.019 525.793 316.305 526.034 316.547C526.274 316.788 526.56 316.98 526.875 317.111C527.19 317.242 527.527 317.309 527.868 317.31H550.138C550.827 317.309 551.489 317.035 551.976 316.548C552.464 316.06 552.738 315.399 552.738 314.71V292.45C552.738 291.76 552.464 291.099 551.976 290.611C551.489 290.124 550.827 289.85 550.138 289.85Z" fill="#E6E6E6"/>
<path d="M596.898 138.05H574.628C573.94 138.052 573.281 138.327 572.796 138.814C572.31 139.302 572.038 139.962 572.038 140.649V162.919C572.038 163.606 572.311 164.265 572.797 164.751C573.282 165.236 573.941 165.509 574.628 165.51H596.898C597.586 165.51 598.246 165.237 598.733 164.752C599.221 164.266 599.496 163.607 599.498 162.919V140.649C599.496 139.961 599.221 139.3 598.734 138.813C598.247 138.326 597.587 138.052 596.898 138.05Z" fill="white"/>
<path d="M596.898 176H574.628C573.94 176.002 573.281 176.277 572.796 176.764C572.31 177.252 572.038 177.912 572.038 178.6V200.87C572.038 201.556 572.311 202.215 572.797 202.701C573.282 203.187 573.941 203.459 574.628 203.46H596.898C597.586 203.46 598.246 203.187 598.733 202.702C599.221 202.216 599.496 201.557 599.498 200.87V178.6C599.496 177.911 599.221 177.25 598.734 176.763C598.247 176.276 597.587 176.002 596.898 176Z" fill="white"/>
<path d="M596.898 213.95H574.628C573.94 213.952 573.281 214.227 572.796 214.714C572.31 215.202 572.038 215.862 572.038 216.55V238.81C572.037 239.15 572.103 239.488 572.233 239.803C572.363 240.119 572.553 240.405 572.794 240.647C573.034 240.888 573.32 241.08 573.635 241.211C573.95 241.342 574.287 241.409 574.628 241.409H596.898C597.587 241.409 598.249 241.135 598.736 240.648C599.224 240.16 599.498 239.499 599.498 238.81V216.55C599.496 215.861 599.221 215.2 598.734 214.713C598.247 214.226 597.587 213.952 596.898 213.95Z" fill="#FF0000"/>
<path d="M596.898 251.899H574.628C573.94 251.902 573.281 252.177 572.796 252.664C572.31 253.152 572.038 253.812 572.038 254.5V276.76C572.037 277.1 572.103 277.438 572.233 277.753C572.363 278.069 572.553 278.355 572.794 278.597C573.034 278.838 573.32 279.03 573.635 279.161C573.95 279.292 574.287 279.359 574.628 279.36H596.898C597.587 279.359 598.249 279.085 598.736 278.598C599.224 278.11 599.498 277.449 599.498 276.76V254.5C599.496 253.811 599.221 253.15 598.734 252.663C598.247 252.176 597.587 251.902 596.898 251.899Z" fill="#E6E6E6"/>
<path d="M596.898 289.85H574.628C574.287 289.85 573.95 289.917 573.635 290.048C573.32 290.179 573.034 290.371 572.794 290.612C572.553 290.854 572.363 291.141 572.233 291.456C572.103 291.771 572.037 292.109 572.038 292.45V314.71C572.037 315.05 572.103 315.388 572.233 315.703C572.363 316.019 572.553 316.305 572.794 316.547C573.034 316.788 573.32 316.98 573.635 317.111C573.95 317.242 574.287 317.309 574.628 317.31H596.898C597.587 317.309 598.249 317.035 598.736 316.548C599.224 316.06 599.498 315.399 599.498 314.71V292.45C599.498 291.76 599.224 291.099 598.736 290.611C598.249 290.124 597.587 289.85 596.898 289.85Z" fill="white"/>
<path d="M643.658 138.05H621.388C620.7 138.052 620.041 138.327 619.556 138.814C619.07 139.302 618.798 139.962 618.798 140.649V162.919C618.798 163.606 619.071 164.265 619.557 164.751C620.042 165.236 620.701 165.509 621.388 165.51H643.658C644.346 165.51 645.006 165.237 645.493 164.752C645.981 164.266 646.256 163.607 646.258 162.919V140.649C646.256 139.961 645.981 139.3 645.494 138.813C645.007 138.326 644.347 138.052 643.658 138.05Z" fill="#FF0000"/>
<path d="M643.658 176H621.388C620.7 176.002 620.041 176.277 619.556 176.764C619.07 177.252 618.798 177.912 618.798 178.6V200.87C618.798 201.556 619.071 202.215 619.557 202.701C620.042 203.187 620.701 203.459 621.388 203.46H643.658C644.346 203.46 645.006 203.187 645.493 202.702C645.981 202.216 646.256 201.557 646.258 200.87V178.6C646.256 177.911 645.981 177.25 645.494 176.763C645.007 176.276 644.347 176.002 643.658 176Z" fill="#FF0000"/>
<path d="M643.658 213.95H621.388C620.7 213.952 620.041 214.227 619.556 214.714C619.07 215.202 618.798 215.862 618.798 216.55V238.81C618.797 239.15 618.863 239.488 618.993 239.803C619.123 240.119 619.313 240.405 619.554 240.647C619.794 240.888 620.08 241.08 620.395 241.211C620.71 241.342 621.047 241.409 621.388 241.409H643.658C644.347 241.409 645.009 241.135 645.496 240.648C645.984 240.16 646.258 239.499 646.258 238.81V216.55C646.256 215.861 645.981 215.2 645.494 214.713C645.007 214.226 644.347 213.952 643.658 213.95Z" fill="#E6E6E6"/>
<path d="M643.658 251.899H621.388C620.7 251.902 620.041 252.177 619.556 252.664C619.07 253.152 618.798 253.812 618.798 254.5V276.76C618.797 277.1 618.863 277.438 618.993 277.753C619.123 278.069 619.313 278.355 619.554 278.597C619.794 278.838 620.08 279.03 620.395 279.161C620.71 279.292 621.047 279.359 621.388 279.36H643.658C644.347 279.359 645.009 279.085 645.496 278.598C645.984 278.11 646.258 277.449 646.258 276.76V254.5C646.256 253.811 645.981 253.15 645.494 252.663C645.007 252.176 644.347 251.902 643.658 251.899Z" fill="white"/>
<path d="M643.658 289.85H621.388C621.047 289.85 620.71 289.917 620.395 290.048C620.08 290.179 619.794 290.371 619.554 290.612C619.313 290.854 619.123 291.141 618.993 291.456C618.863 291.771 618.797 292.109 618.798 292.45V314.71C618.797 315.05 618.863 315.388 618.993 315.703C619.123 316.019 619.313 316.305 619.554 316.547C619.794 316.788 620.08 316.98 620.395 317.111C620.71 317.242 621.047 317.309 621.388 317.31H643.658C644.347 317.309 645.009 317.035 645.496 316.548C645.984 316.06 646.258 315.399 646.258 314.71V292.45C646.258 291.76 645.984 291.099 645.496 290.611C645.009 290.124 644.347 289.85 643.658 289.85Z" fill="#FF0000"/>
<path d="M690.418 138.05H668.148C667.46 138.052 666.801 138.327 666.316 138.814C665.83 139.302 665.558 139.962 665.558 140.649V162.919C665.558 163.606 665.831 164.265 666.317 164.751C666.802 165.236 667.461 165.509 668.148 165.51H690.418C691.106 165.51 691.766 165.237 692.253 164.752C692.741 164.266 693.016 163.607 693.018 162.919V140.649C693.016 139.961 692.741 139.3 692.254 138.813C691.767 138.326 691.107 138.052 690.418 138.05Z" fill="#FF0000"/>
<path d="M690.418 176H668.148C667.46 176.002 666.801 176.277 666.316 176.764C665.83 177.252 665.558 177.912 665.558 178.6V200.87C665.558 201.556 665.831 202.215 666.317 202.701C666.802 203.187 667.461 203.459 668.148 203.46H690.418C691.106 203.46 691.766 203.187 692.253 202.702C692.741 202.216 693.016 201.557 693.018 200.87V178.6C693.016 177.911 692.741 177.25 692.254 176.763C691.767 176.276 691.107 176.002 690.418 176Z" fill="#FF0000"/>
<path d="M690.418 213.95H668.148C667.46 213.952 666.801 214.227 666.316 214.714C665.83 215.202 665.558 215.862 665.558 216.55V238.81C665.557 239.15 665.623 239.488 665.753 239.803C665.883 240.119 666.073 240.405 666.314 240.647C666.554 240.888 666.84 241.08 667.155 241.211C667.47 241.342 667.807 241.409 668.148 241.409H690.418C691.107 241.409 691.769 241.135 692.256 240.648C692.744 240.16 693.018 239.499 693.018 238.81V216.55C693.016 215.861 692.741 215.2 692.254 214.713C691.767 214.226 691.107 213.952 690.418 213.95Z" fill="#E6E6E6"/>
<path d="M690.418 251.899H668.148C667.46 251.902 666.801 252.177 666.316 252.664C665.83 253.152 665.558 253.812 665.558 254.5V276.76C665.557 277.1 665.623 277.438 665.753 277.753C665.883 278.069 666.073 278.355 666.314 278.597C666.554 278.838 666.84 279.03 667.155 279.161C667.47 279.292 667.807 279.359 668.148 279.36H690.418C691.107 279.359 691.769 279.085 692.256 278.598C692.744 278.11 693.018 277.449 693.018 276.76V254.5C693.016 253.811 692.741 253.15 692.254 252.663C691.767 252.176 691.107 251.902 690.418 251.899Z" fill="#FF0000"/>
<path d="M690.418 289.85H668.148C667.807 289.85 667.47 289.917 667.155 290.048C666.84 290.179 666.554 290.371 666.314 290.612C666.073 290.854 665.883 291.141 665.753 291.456C665.623 291.771 665.557 292.109 665.558 292.45V314.71C665.557 315.05 665.623 315.388 665.753 315.703C665.883 316.019 666.073 316.305 666.314 316.547C666.554 316.788 666.84 316.98 667.155 317.111C667.47 317.242 667.807 317.309 668.148 317.31H690.418C691.107 317.309 691.769 317.035 692.256 316.548C692.744 316.06 693.018 315.399 693.018 314.71V292.45C693.018 291.76 692.744 291.099 692.256 290.611C691.769 290.124 691.107 289.85 690.418 289.85Z" fill="#FF0000"/>
<path d="M737.178 138.05H714.908C714.22 138.052 713.561 138.327 713.076 138.814C712.59 139.302 712.318 139.962 712.318 140.649V162.919C712.318 163.606 712.591 164.265 713.077 164.751C713.562 165.236 714.221 165.509 714.908 165.51H737.178C737.866 165.51 738.526 165.237 739.013 164.752C739.501 164.266 739.776 163.607 739.778 162.919V140.649C739.776 139.961 739.501 139.3 739.014 138.813C738.527 138.326 737.867 138.052 737.178 138.05Z" fill="#E6E6E6"/>
<path d="M737.178 176H714.908C714.22 176.002 713.561 176.277 713.076 176.764C712.59 177.252 712.318 177.912 712.318 178.6V200.87C712.318 201.556 712.591 202.215 713.077 202.701C713.562 203.187 714.221 203.459 714.908 203.46H737.178C737.866 203.46 738.526 203.187 739.013 202.702C739.501 202.216 739.776 201.557 739.778 200.87V178.6C739.776 177.911 739.501 177.25 739.014 176.763C738.527 176.276 737.867 176.002 737.178 176Z" fill="#FF0000"/>
<path d="M737.178 213.95H714.908C714.22 213.952 713.561 214.227 713.076 214.714C712.59 215.202 712.318 215.862 712.318 216.55V238.81C712.317 239.15 712.383 239.488 712.513 239.803C712.643 240.119 712.833 240.405 713.074 240.647C713.314 240.888 713.6 241.08 713.915 241.211C714.23 241.342 714.567 241.409 714.908 241.409H737.178C737.867 241.409 738.529 241.135 739.016 240.648C739.504 240.16 739.778 239.499 739.778 238.81V216.55C739.776 215.861 739.501 215.2 739.014 214.713C738.527 214.226 737.867 213.952 737.178 213.95Z" fill="#FF0000"/>
<path d="M737.178 251.899H714.908C714.22 251.902 713.561 252.177 713.076 252.664C712.59 253.152 712.318 253.812 712.318 254.5V276.76C712.317 277.1 712.383 277.438 712.513 277.753C712.643 278.069 712.833 278.355 713.074 278.597C713.314 278.838 713.6 279.03 713.915 279.161C714.23 279.292 714.567 279.359 714.908 279.36H737.178C737.867 279.359 738.529 279.085 739.016 278.598C739.504 278.11 739.778 277.449 739.778 276.76V254.5C739.776 253.811 739.501 253.15 739.014 252.663C738.527 252.176 737.867 251.902 737.178 251.899Z" fill="#FF0000"/>
<path d="M737.178 289.85H714.908C714.567 289.85 714.23 289.917 713.915 290.048C713.6 290.179 713.314 290.371 713.074 290.612C712.833 290.854 712.643 291.141 712.513 291.456C712.383 291.771 712.317 292.109 712.318 292.45V314.71C712.317 315.05 712.383 315.388 712.513 315.703C712.643 316.019 712.833 316.305 713.074 316.547C713.314 316.788 713.6 316.98 713.915 317.111C714.23 317.242 714.567 317.309 714.908 317.31H737.178C737.867 317.309 738.529 317.035 739.016 316.548C739.504 316.06 739.778 315.399 739.778 314.71V292.45C739.778 291.76 739.504 291.099 739.016 290.611C738.529 290.124 737.867 289.85 737.178 289.85Z" fill="#E6E6E6"/>
<path d="M783.938 138.05H761.668C760.98 138.052 760.321 138.327 759.836 138.814C759.35 139.302 759.078 139.962 759.078 140.649V162.919C759.078 163.606 759.351 164.265 759.837 164.751C760.322 165.236 760.981 165.509 761.668 165.51H783.938C784.626 165.51 785.286 165.237 785.773 164.752C786.261 164.266 786.536 163.607 786.538 162.919V140.649C786.536 139.961 786.261 139.3 785.774 138.813C785.287 138.326 784.627 138.052 783.938 138.05Z" fill="#E6E6E6"/>
<path d="M783.938 176H761.668C760.98 176.002 760.321 176.277 759.836 176.764C759.35 177.252 759.078 177.912 759.078 178.6V200.87C759.078 201.556 759.351 202.215 759.837 202.701C760.322 203.187 760.981 203.459 761.668 203.46H783.938C784.626 203.46 785.286 203.187 785.773 202.702C786.261 202.216 786.536 201.557 786.538 200.87V178.6C786.536 177.911 786.261 177.25 785.774 176.763C785.287 176.276 784.627 176.002 783.938 176Z" fill="#E6E6E6"/>
<path d="M783.938 213.95H761.668C760.98 213.952 760.321 214.227 759.836 214.714C759.35 215.202 759.078 215.862 759.078 216.55V238.81C759.077 239.15 759.143 239.488 759.273 239.803C759.403 240.119 759.593 240.405 759.834 240.647C760.074 240.888 760.36 241.08 760.675 241.211C760.99 241.342 761.327 241.409 761.668 241.409H783.938C784.627 241.409 785.289 241.135 785.776 240.648C786.264 240.16 786.538 239.499 786.538 238.81V216.55C786.536 215.861 786.261 215.2 785.774 214.713C785.287 214.226 784.627 213.952 783.938 213.95Z" fill="#FF0000"/>
<path d="M783.938 251.899H761.668C760.98 251.902 760.321 252.177 759.836 252.664C759.35 253.152 759.078 253.812 759.078 254.5V276.76C759.077 277.1 759.143 277.438 759.273 277.753C759.403 278.069 759.593 278.355 759.834 278.597C760.074 278.838 760.36 279.03 760.675 279.161C760.99 279.292 761.327 279.359 761.668 279.36H783.938C784.627 279.359 785.289 279.085 785.776 278.598C786.264 278.11 786.538 277.449 786.538 276.76V254.5C786.536 253.811 786.261 253.15 785.774 252.663C785.287 252.176 784.627 251.902 783.938 251.899Z" fill="#E6E6E6"/>
<path d="M783.938 289.85H761.668C761.327 289.85 760.99 289.917 760.675 290.048C760.36 290.179 760.074 290.371 759.834 290.612C759.593 290.854 759.403 291.141 759.273 291.456C759.143 291.771 759.077 292.109 759.078 292.45V314.71C759.077 315.05 759.143 315.388 759.273 315.703C759.403 316.019 759.593 316.305 759.834 316.547C760.074 316.788 760.36 316.98 760.675 317.111C760.99 317.242 761.327 317.309 761.668 317.31H783.938C784.627 317.309 785.289 317.035 785.776 316.548C786.264 316.06 786.538 315.399 786.538 314.71V292.45C786.538 291.76 786.264 291.099 785.776 290.611C785.289 290.124 784.627 289.85 783.938 289.85Z" fill="#E6E6E6"/>
<path d="M272.095 618.051H271.475L272.005 617.981L272.095 618.051Z" fill="#2F2E41"/>
<path d="M218.814 203.055C256.548 203.055 287.136 172.466 287.136 134.733C287.136 96.9997 256.548 66.4109 218.814 66.4109C181.081 66.4109 150.493 96.9997 150.493 134.733C150.493 172.466 181.081 203.055 218.814 203.055Z" fill="#B06C49"/>
<path d="M278.646 84.6403C278.646 84.6403 296.515 50.4794 257.202 47.3739C257.202 47.3739 223.687 16.9716 189.526 41.8159C189.526 41.8159 170.893 41.8159 160.704 62.9015C160.704 62.9015 146.049 57.3435 142.828 72.2181C142.828 72.2181 132.105 103.274 142.828 131.223C153.552 159.173 157.114 162.279 157.114 162.279C157.114 162.279 139.493 103.68 182.384 100.575C225.274 97.4692 273.27 70.6654 276.845 104.826C280.419 138.987 285.798 147.404 285.798 147.404C285.798 147.404 319.748 98.6153 278.646 84.6403Z" fill="#2F2E41"/>
<path d="M395.548 303.11L395.328 304.27L392.858 317.31L375.788 407.51L374.778 412.82L372.658 424.05L369.758 439.37L363.328 473.32L361.488 483.05L360.798 486.7L360.558 487.98L358.648 498.05L358.068 501.09L353.408 535.62L349.338 565.71L362.958 579.329L354.838 587.449L349.508 617.98L349.518 618.05H131.988C123.188 612.35 114.515 606.473 105.968 600.419L107.758 587.02C107.758 587.02 113.918 563.09 111.328 560.23C108.748 557.37 103.088 552.26 103.088 552.26L110.218 535.62L111.208 533.31L109.548 498.88L109.508 498.05L108.958 486.699L108.888 485.239L108.778 483.05L106.668 439.369L106.628 438.649L105.988 425.409L105.388 412.82L105.128 407.509L102.558 354.379L100.818 318.3L99.2981 286.89L105.408 284.82L170.758 262.609L197.828 227.419L254.168 227.839L281.748 228.05L327.768 270.729L338.238 275.729L338.318 275.769L345.828 279.359L364.868 288.449L384.998 298.07L395.328 303L395.548 303.11Z" fill="#CACACA"/>
<path d="M205.109 515.551C200.98 517.15 196.551 517.825 192.134 517.528C187.716 517.23 183.417 515.968 179.54 513.829C175.663 511.691 172.303 508.728 169.694 505.15C167.086 501.572 165.294 497.466 164.445 493.121L57.8861 478.003L94.9289 436.101L190.44 456.881C197.834 455.938 205.318 457.74 211.473 461.946C217.628 466.151 222.026 472.469 223.834 479.701C225.642 486.932 224.734 494.576 221.283 501.184C217.832 507.791 212.077 512.903 205.109 515.551Z" fill="#B06C49"/>
<path d="M157.598 439.37C155.624 436.867 152.83 435.142 149.708 434.5L105.988 425.409L101.498 424.48C98.8887 423.935 96.4237 422.846 94.2645 421.283C92.1052 419.72 90.3004 417.718 88.968 415.409C87.5859 412.986 86.7498 410.29 86.518 407.51C86.3096 404.982 86.6123 402.438 87.408 400.03L102.558 354.38L112.388 324.76C113.579 321.187 114.282 317.47 114.478 313.71C115.026 303.302 111.806 293.046 105.408 284.82C99.7833 277.589 91.9819 272.359 83.1564 269.903C74.331 267.446 64.9495 267.894 56.398 271.18C56.148 271.27 55.8879 271.37 55.6379 271.47C49.5052 273.918 44.026 277.76 39.6334 282.691C35.2408 287.621 32.055 293.506 30.3279 299.88L19.648 338.73L-2.38206 418.82C-4.58736 426.844 -5.03288 435.25 -3.68813 443.462C-2.34339 451.675 0.759871 459.5 5.40925 466.402C10.0586 473.304 16.1444 479.12 23.2499 483.451C30.3554 487.783 38.313 490.528 46.5779 491.5L109.548 498.88L138.688 502.3C142.058 502.705 145.456 501.825 148.206 499.837C150.956 497.848 152.857 494.896 153.528 491.57C153.575 491.388 153.612 491.205 153.638 491.02L154.338 486.699L160.268 450.32L160.328 449.949C160.637 448.093 160.554 446.193 160.083 444.37C159.613 442.548 158.767 440.845 157.598 439.37Z" fill="#CACACA"/>
<path d="M272.983 516.717C277.295 517.718 281.775 517.762 286.107 516.844C290.438 515.927 294.516 514.071 298.053 511.407C301.589 508.743 304.499 505.336 306.576 501.426C308.654 497.517 309.849 493.199 310.077 488.777L413.439 458.783L370.858 422.524L279.231 456.565C271.778 456.674 264.623 459.513 259.123 464.545C253.623 469.577 250.159 476.451 249.389 483.866C248.619 491.28 250.595 498.72 254.943 504.775C259.292 510.829 265.71 515.079 272.983 516.717Z" fill="#B06C49"/>
<path d="M464.758 391.69L415.598 278.55C411.577 269.261 404.396 261.697 395.328 257.2C392.525 255.82 389.581 254.747 386.548 254C386.078 253.88 385.608 253.77 385.138 253.679C378.706 252.276 372.034 252.399 365.658 254.04C359.83 255.537 354.383 258.246 349.672 261.99C344.961 265.734 341.092 270.43 338.318 275.77C338.288 275.814 338.261 275.861 338.238 275.909C335.139 281.904 333.491 288.543 333.427 295.29C333.363 302.038 334.884 308.707 337.868 314.76L338.478 315.98L373.218 385.75C374.404 388.135 375.073 390.745 375.179 393.407C375.286 396.07 374.829 398.724 373.837 401.198C372.846 403.671 371.342 405.906 369.426 407.757C367.51 409.609 365.224 411.034 362.718 411.939L360.278 412.82L316.398 428.669C313.105 429.844 310.397 432.251 308.843 435.383C307.29 438.515 307.012 442.127 308.068 445.46L308.178 445.81L320.478 485.169C320.538 485.35 320.598 485.53 320.668 485.709C320.776 486.049 320.91 486.38 321.068 486.699C322.375 489.631 324.686 492 327.584 493.381C330.482 494.761 333.778 495.062 336.878 494.229L360.558 487.979L365.388 486.699L426.538 470.55C434.584 468.423 442.076 464.584 448.5 459.293C454.924 454.003 460.129 447.386 463.759 439.897C467.389 432.408 469.357 424.223 469.53 415.903C469.702 407.582 468.074 399.323 464.758 391.69Z" fill="#CACACA"/>
<path d="M-19.102 486.7C-4.93155 503.983 10.3509 520.325 26.648 535.62H478.618C482.972 535.626 487.147 537.36 490.225 540.44C493.303 543.52 495.034 547.695 495.038 552.05L495.688 666.58C523.493 653.805 549.531 637.493 573.158 618.05C579.718 612.66 586.075 607.036 592.228 601.18C596.258 597.36 600.191 593.446 604.028 589.44C632.792 559.475 656.084 524.702 672.848 486.7H-19.102Z" fill="#3F3D56"/>
<path d="M604.028 589.44C600.198 593.45 596.265 597.363 592.228 601.18H496.018V589.44H604.028Z" fill="white"/>
<path d="M394.648 213.95C394.173 213.072 393.469 212.34 392.612 211.829C391.755 211.319 390.776 211.049 389.778 211.05H61.938C60.4682 211.053 59.0598 211.64 58.0214 212.68C56.983 213.72 56.3992 215.13 56.398 216.6V412.82H395.328V216.6C395.333 215.672 395.099 214.76 394.648 213.95Z" fill="#3F3D56"/>
<path d="M56.1011 407.507V431.721C56.1011 432.725 56.2989 433.719 56.683 434.646C57.0671 435.574 57.6301 436.416 58.3399 437.126C59.0497 437.836 59.8924 438.399 60.8198 438.783C61.7472 439.167 62.7412 439.365 63.745 439.365H188.842V487.151H187.18C187.049 487.151 186.92 487.177 186.8 487.227C186.679 487.277 186.57 487.35 186.478 487.442C186.385 487.534 186.312 487.644 186.262 487.764C186.213 487.885 186.187 488.014 186.187 488.144V491.468C186.187 491.599 186.212 491.728 186.262 491.848C186.312 491.969 186.385 492.078 186.478 492.17C186.57 492.263 186.679 492.336 186.8 492.386C186.92 492.435 187.049 492.461 187.18 492.461H264.838C264.969 492.461 265.098 492.435 265.218 492.386C265.339 492.336 265.448 492.263 265.54 492.17C265.633 492.078 265.706 491.969 265.756 491.848C265.806 491.728 265.831 491.599 265.831 491.468V488.144C265.831 488.014 265.806 487.885 265.756 487.764C265.706 487.644 265.633 487.534 265.54 487.442C265.448 487.35 265.339 487.277 265.218 487.227C265.098 487.177 264.969 487.151 264.838 487.151H263.176V439.365H388.273C389.277 439.365 390.271 439.167 391.198 438.783C392.126 438.399 392.968 437.836 393.678 437.126C394.388 436.416 394.951 435.574 395.335 434.646C395.719 433.719 395.917 432.725 395.917 431.721V407.507H56.1011Z" fill="#3F3D56"/>
<path d="M221.903 338.01C239.193 338.01 253.209 323.994 253.209 306.704C253.209 289.414 239.193 275.397 221.903 275.397C204.613 275.397 190.596 289.414 190.596 306.704C190.596 323.994 204.613 338.01 221.903 338.01Z" fill="#93C6E7"/>
<path d="M301.668 131H296.668C296.668 93.1996 259.258 68.4296 221.518 68.4096C216.029 68.3935 210.551 68.9262 205.168 69.9996C199.108 71.2096 192.818 72.6596 186.638 74.5496C162.268 82.0196 139.668 96.4596 139.668 131C139.663 137.707 140.516 144.388 142.208 150.88L137.368 152.14C135.573 145.236 134.665 138.132 134.668 131C134.668 100.82 147.058 80.0896 168.458 67.7296C179.708 61.2296 193.438 57.0396 209.168 54.9996C215.714 54.1287 222.331 53.9277 228.918 54.3996C272.318 57.5195 301.668 90.7996 301.668 131Z" fill="#93C6E7"/>
<path d="M309.998 133.77L308.028 119.21C307.542 115.533 305.771 112.146 303.028 109.65C301.267 108.022 299.159 106.816 296.864 106.123C294.568 105.43 292.145 105.268 289.778 105.65L286.648 106.08C285.792 106.192 284.966 106.474 284.219 106.908C283.473 107.343 282.819 107.921 282.298 108.61C281.772 109.296 281.387 110.08 281.166 110.916C280.944 111.751 280.891 112.623 281.008 113.48L285.558 147.02C285.745 148.387 286.358 149.66 287.309 150.66C288.26 151.659 289.502 152.334 290.858 152.59C291.26 152.67 291.668 152.71 292.078 152.71C292.372 152.709 292.666 152.689 292.958 152.65L296.458 152.18C298.592 151.896 300.645 151.18 302.492 150.074C304.339 148.968 305.941 147.497 307.198 145.75C307.468 145.37 307.728 144.98 307.968 144.58C309.842 141.307 310.558 137.499 309.998 133.77Z" fill="#93C6E7"/>
<path d="M284.628 106.69C283.71 107.136 282.911 107.794 282.298 108.61C281.772 109.296 281.387 110.08 281.166 110.916C280.944 111.751 280.891 112.623 281.008 113.48L285.558 147.02C285.745 148.387 286.358 149.66 287.309 150.66C288.26 151.659 289.502 152.334 290.858 152.59L284.628 106.69Z" fill="white"/>
<path d="M309.998 133.77L308.028 119.21C307.542 115.533 305.771 112.146 303.028 109.65L307.558 143.02C307.626 143.555 307.764 144.08 307.968 144.58C309.842 141.307 310.558 137.499 309.998 133.77Z" fill="#3F3D56"/>
<path d="M294.428 144.26C295.796 144.075 296.484 140.819 295.965 136.988C295.445 133.157 293.915 130.202 292.546 130.387C291.178 130.573 290.49 133.829 291.01 137.66C291.53 141.491 293.06 144.446 294.428 144.26Z" fill="#3F3D56"/>
<path d="M291.428 126.26C292.796 126.075 293.484 122.819 292.965 118.988C292.445 115.157 290.915 112.202 289.546 112.387C288.178 112.573 287.49 115.829 288.01 119.66C288.53 123.491 290.06 126.446 291.428 126.26Z" fill="#3F3D56"/>
<path d="M310.428 133.26C311.796 133.075 312.484 129.819 311.965 125.988C311.445 122.157 309.915 119.202 308.546 119.387C307.178 119.573 306.49 122.829 307.01 126.66C307.53 130.491 309.06 133.446 310.428 133.26Z" fill="#3F3D56"/>
<path d="M221.518 68.4096C216.029 68.3935 210.551 68.9261 205.168 69.9995C199.108 71.2095 192.818 72.6596 186.638 74.5496C176.988 74.0796 169.888 71.5795 168.458 67.7295C179.708 61.2295 193.438 57.0395 209.168 54.9995C215.714 54.1287 222.331 53.9277 228.918 54.3996C229.615 54.8083 230.218 55.36 230.687 56.0184C231.156 56.6768 231.48 57.4269 231.638 58.2195C232.108 61.6996 228.138 65.3995 221.518 68.4096Z" fill="#3F3D56"/>
<path d="M157.678 165.7L149.978 133.69C149.703 132.535 149.094 131.487 148.226 130.677C147.357 129.868 146.269 129.333 145.098 129.14C144.767 129.088 144.433 129.061 144.098 129.06C143.626 129.061 143.156 129.118 142.698 129.23L139.718 129.95C135.881 130.878 132.569 133.29 130.509 136.657C128.448 140.024 127.808 144.071 128.728 147.91L132.178 162.27C132.966 165.65 134.842 168.679 137.518 170.89C137.952 171.24 138.406 171.564 138.878 171.86C140.554 172.91 142.424 173.614 144.377 173.93C146.33 174.246 148.326 174.168 150.248 173.7L153.218 172.98C154.003 172.796 154.742 172.452 155.388 171.97C156.348 171.269 157.079 170.299 157.487 169.183C157.894 168.066 157.961 166.854 157.678 165.7Z" fill="#93C6E7"/>
<path d="M141.536 159.744C142.878 159.421 143.233 156.112 142.329 152.353C141.424 148.594 139.603 145.809 138.26 146.132C136.918 146.455 136.563 149.764 137.467 153.523C138.372 157.282 140.193 160.067 141.536 159.744Z" fill="#3F3D56"/>
<path d="M131.536 162.744C132.878 162.421 133.233 159.112 132.329 155.353C131.424 151.594 129.603 148.809 128.26 149.132C126.918 149.455 126.563 152.764 127.467 156.523C128.372 160.282 130.193 163.067 131.536 162.744Z" fill="#3F3D56"/>
<path d="M158.168 165.58L150.468 133.57C150.168 132.32 149.506 131.187 148.565 130.312C147.624 129.436 146.446 128.858 145.178 128.65L155.688 172.37C156.726 171.609 157.515 170.559 157.957 169.35C158.398 168.142 158.472 166.83 158.168 165.58Z" fill="white"/>
<path d="M130.468 141.57C130.256 140.679 129.857 139.844 129.298 139.12C128.216 141.923 128.017 144.99 128.728 147.91L132.178 162.27C132.966 165.65 134.842 168.679 137.518 170.89L130.468 141.57Z" fill="#3F3D56"/>
</g>
<defs>
<clipPath id="clip0_1_2">
<rect width="850.538" height="740.83" fill="white" transform="translate(-64 -42)"/>
</clipPath>
</defs>
</svg>
