<svg version="1.1" id="Layer_1" xmlns="http://www.w3.org/2000/svg" xmlns:xlink="http://www.w3.org/1999/xlink" x="0px" y="0px"
	 width="100%" viewBox="0 0 2006 3200" enable-background="new 0 0 2006 3200" xml:space="preserve">

<path fill="#334866" opacity="1.000000" stroke="none" 
	d="
M1580.370483,1964.271851 
	C1581.700317,1964.343018 1583.030151,1964.476685 1584.359985,1964.476562 
	C1724.961670,1964.464111 1865.563477,1964.441772 2007.082520,1964.209961 
	C2008.000000,1984.041748 2008.000000,2004.083618 2008.000000,2025.062744 
	C1978.204346,2025.891846 1948.408813,2025.747925 1918.613037,2025.688721 
	C1900.401123,2025.652466 1882.188843,2025.746460 1862.115356,2025.871338 
	C1848.959717,2025.929077 1837.665405,2025.897705 1826.371216,2025.866211 
	C1780.478516,2025.802612 1734.585938,2025.715820 1688.693237,2025.682983 
	C1653.107910,2025.657593 1617.522705,2025.699463 1580.848877,2024.820801 
	C1579.794189,2006.985352 1579.804810,1990.040405 1579.884033,1973.095825 
	C1579.897827,1970.153809 1580.201050,1967.213135 1580.370483,1964.271851 
z"/>
<path fill="#EBD9D2" opacity="1.000000" stroke="none" 
	d="
M1579.763672,1963.739502 
	C1580.201050,1967.213135 1579.897827,1970.153809 1579.884033,1973.095825 
	C1579.804810,1990.040405 1579.794189,2006.985352 1579.916260,2024.841064 
	C1578.114746,2046.846313 1576.104858,2067.936035 1574.222534,2089.036865 
	C1573.339111,2098.939941 1572.834961,2108.877686 1571.913452,2118.776611 
	C1571.055054,2127.997559 1569.906494,2137.192383 1568.819580,2146.390625 
	C1567.965698,2153.617432 1566.865479,2160.816895 1566.127930,2168.054443 
	C1563.979980,2189.133057 1562.218140,2210.253906 1559.822754,2231.303223 
	C1556.868652,2257.264893 1553.310059,2283.157471 1550.260742,2309.108887 
	C1549.140137,2318.646240 1548.797974,2328.272705 1547.974731,2337.847656 
	C1546.812500,2351.365479 1545.557373,2364.875000 1544.293945,2378.383789 
	C1543.615479,2385.636719 1542.763916,2392.873779 1542.117798,2400.129395 
	C1540.678467,2416.292969 1539.541260,2432.486816 1537.863525,2448.625000 
	C1536.256470,2464.085449 1533.934937,2479.471191 1532.272217,2494.926514 
	C1530.607666,2510.399170 1529.559692,2525.938232 1527.890747,2541.410156 
	C1526.295166,2556.203613 1524.198730,2570.942139 1522.420776,2585.716553 
	C1521.510376,2593.280029 1520.845093,2600.872559 1520.015747,2608.446045 
	C1518.107056,2625.874512 1516.099731,2643.292480 1514.257202,2660.727783 
	C1512.726196,2675.214844 1511.517090,2689.736816 1509.903198,2704.213867 
	C1508.181030,2719.660645 1506.151123,2735.072998 1504.254639,2750.500244 
	C1504.214111,2750.830811 1504.068726,2751.176270 1504.125732,2751.486572 
	C1506.047607,2761.936279 1500.190308,2767.460938 1490.165527,2771.491943 
	C1475.868774,2773.009033 1462.911377,2776.043457 1450.220581,2775.176270 
	C1434.466431,2774.099854 1418.917480,2769.875000 1403.311279,2766.848389 
	C1396.210815,2765.471191 1389.185425,2763.706543 1382.125977,2762.117920 
	C1381.119629,2761.281738 1380.215820,2759.910645 1379.090576,2759.695557 
	C1371.202881,2758.186035 1370.054077,2753.117920 1369.802490,2745.875732 
	C1369.204956,2728.672607 1367.462036,2711.509033 1366.185791,2694.329346 
	C1366.136475,2693.665283 1366.127441,2692.997803 1366.100952,2692.332031 
	C1365.389160,2674.412109 1364.933594,2656.477295 1363.882935,2638.577393 
	C1363.068481,2624.703369 1361.506104,2610.873291 1360.289673,2597.022461 
	C1360.173218,2595.697021 1360.142822,2594.363770 1360.088989,2593.033447 
	C1359.377319,2575.447998 1358.826416,2557.854736 1357.920532,2540.279297 
	C1356.742432,2517.427246 1355.312866,2494.588379 1353.936157,2471.746826 
	C1352.639282,2450.234619 1351.762329,2428.681885 1349.807617,2407.228516 
	C1347.395142,2380.752441 1345.976685,2354.280273 1345.839233,2327.690918 
	C1345.732666,2307.101074 1344.865845,2286.504150 1343.870239,2265.932861 
	C1342.860596,2245.072998 1341.898071,2224.177979 1339.776855,2203.414307 
	C1337.525757,2181.380615 1335.622681,2159.249023 1330.073364,2137.648926 
	C1327.052734,2125.890625 1321.029907,2116.908447 1311.260742,2109.326660 
	C1274.459717,2080.764160 1235.030640,2056.133789 1196.148315,2030.659546 
	C1191.408813,2027.554443 1186.800415,2026.286987 1181.265137,2026.296265 
	C1115.620361,2026.405029 1049.968384,2026.900024 984.333740,2026.071899 
	C961.667847,2025.786011 940.307556,2030.861084 918.705383,2035.880981 
	C878.683960,2045.180908 838.676575,2054.541260 798.665833,2063.886963 
	C775.652161,2069.262695 760.774841,2083.556641 753.108032,2105.652344 
	C748.395020,2119.235596 746.212830,2133.203369 745.871155,2147.621338 
	C744.917725,2187.852051 753.055176,2226.719971 762.729858,2265.394531 
	C768.120178,2286.941895 773.991516,2308.382568 778.774963,2330.063477 
	C781.976990,2344.576416 783.715698,2359.416748 785.982910,2374.129883 
	C787.696106,2385.247803 789.273010,2396.388184 790.795654,2407.533936 
	C792.586548,2420.644531 794.291687,2433.767090 795.963989,2446.893311 
	C797.887085,2461.988037 799.842041,2477.080078 801.572144,2492.197266 
	C802.589294,2501.084473 803.107971,2510.028076 804.011780,2518.929688 
	C804.947693,2528.146973 806.110962,2537.340820 807.114197,2546.551758 
	C808.082031,2555.437744 809.109619,2564.320312 809.860962,2573.225342 
	C810.724854,2583.465576 811.117065,2593.747070 812.077881,2603.976562 
	C813.036377,2614.181885 814.548950,2624.334229 815.623535,2634.530273 
	C816.491455,2642.764893 817.135193,2651.025391 817.759521,2659.283203 
	C818.559326,2669.863525 819.136292,2680.461670 819.997681,2691.036377 
	C821.126282,2704.892578 822.553589,2718.725098 823.637573,2732.584473 
	C824.568481,2744.486572 825.204651,2756.411621 825.956482,2768.327637 
	C826.228210,2772.634033 826.195618,2776.978027 826.766663,2781.242920 
	C827.634460,2787.723633 826.887695,2789.381836 820.701172,2791.413086 
	C816.299500,2792.858154 811.818359,2794.061035 805.844604,2795.603760 
	C793.837158,2797.214844 783.392700,2799.339600 772.872009,2799.829834 
	C744.739868,2801.140381 716.602600,2801.125977 688.704956,2796.257080 
	C685.795898,2795.618164 682.850525,2794.308594 679.984375,2794.463379 
	C670.735229,2794.963379 668.159607,2788.946777 666.272583,2781.692627 
	C661.266663,2762.448975 656.212463,2743.216553 651.002930,2724.027100 
	C641.797852,2690.120850 632.369324,2656.275146 623.203308,2622.358154 
	C606.429016,2560.288574 589.603821,2498.231445 573.125977,2436.082764 
	C557.754150,2378.105469 542.738831,2320.032715 527.695923,2261.968750 
	C518.305176,2225.721436 509.169861,2189.407959 499.888184,2153.132324 
	C496.280396,2139.031738 492.585358,2124.953613 487.892975,2109.766113 
	C486.551422,2104.366211 486.741180,2099.960938 485.860657,2095.781738 
	C480.945068,2072.450684 475.770477,2049.174316 470.726379,2024.949219 
	C469.681458,2006.303955 468.442627,1988.595215 471.944519,1970.964600 
	C472.367828,1968.833374 471.745056,1966.494507 471.607117,1964.251831 
	C474.618256,1957.725342 477.543823,1951.157593 480.659485,1944.681396 
	C486.124603,1933.322021 492.495880,1922.574219 501.345520,1913.404297 
	C503.323822,1911.354614 504.333405,1908.369873 506.756287,1904.973389 
	C555.916199,1906.640137 604.104492,1909.234619 652.302734,1911.628906 
	C686.214050,1913.313599 720.142456,1914.651855 754.056335,1916.288208 
	C774.333801,1917.266479 794.589539,1918.730835 814.872437,1919.541992 
	C822.380371,1919.842163 829.938049,1918.900024 838.149780,1918.536865 
	C842.917297,1917.176270 847.067749,1915.958130 851.089233,1914.405884 
	C880.882935,1902.905273 910.649841,1891.335205 940.427246,1879.792480 
	C1000.290466,1856.587280 1060.098877,1833.238159 1120.090942,1810.370850 
	C1127.512817,1807.541626 1131.206299,1803.947510 1130.972900,1796.031860 
	C1151.508911,1796.634888 1171.105957,1797.481934 1190.711914,1797.814819 
	C1263.874634,1799.057617 1336.980835,1797.729858 1409.948364,1791.882690 
	C1425.482056,1790.637817 1440.939697,1788.434082 1456.427612,1786.632202 
	C1469.604248,1785.099365 1482.774414,1783.508667 1495.947388,1781.943604 
	C1497.838379,1783.736328 1500.193115,1785.233643 1501.551514,1787.365723 
	C1525.966431,1825.684326 1548.353149,1865.129028 1563.535645,1908.109741 
	C1569.881104,1926.073364 1574.016602,1944.817627 1579.763672,1963.739502 
z"/>
<path fill="#608CC9" opacity="1.000000" stroke="none" 
	d="
M1496.083008,1781.103516 
	C1482.774414,1783.508667 1469.604248,1785.099365 1456.427612,1786.632202 
	C1440.939697,1788.434082 1425.482056,1790.637817 1409.948364,1791.882690 
	C1336.980835,1797.729858 1263.874634,1799.057617 1190.711914,1797.814819 
	C1171.105957,1797.481934 1151.508911,1796.634888 1130.951904,1795.133301 
	C1129.759399,1790.666382 1129.522705,1787.089844 1129.920166,1783.078247 
	C1235.654663,1753.076538 1337.633911,1714.473389 1440.486572,1676.917236 
	C1439.901978,1671.904419 1439.759155,1667.926880 1438.930298,1664.097778 
	C1436.611328,1653.384644 1434.552979,1642.569336 1431.405029,1632.090820 
	C1424.854004,1610.284302 1416.092529,1589.464111 1400.700562,1572.141235 
	C1392.445435,1562.850708 1389.921509,1562.561768 1379.587891,1568.347900 
	C1350.549316,1584.608276 1321.493896,1600.839111 1292.385254,1616.973511 
	C1261.818848,1633.915894 1231.253662,1650.862671 1200.557373,1667.568115 
	C1172.493164,1682.841064 1144.222412,1697.734375 1116.121216,1712.940308 
	C1110.908325,1715.760864 1105.666992,1717.031250 1099.834351,1715.930664 
	C1091.348877,1714.329468 1082.690308,1713.385132 1074.386597,1711.127563 
	C1047.859985,1703.915649 1021.361938,1702.720337 994.650085,1709.860229 
	C993.116943,1710.270142 991.363281,1709.854614 989.889404,1709.156494 
	C997.405640,1702.248291 1004.958557,1696.239136 1012.041016,1689.718994 
	C1028.906860,1674.191895 1045.653442,1658.531494 1062.242310,1642.709106 
	C1071.368530,1634.004639 1076.056763,1623.410278 1074.454224,1610.446045 
	C1072.460205,1594.314819 1071.571411,1577.993164 1068.632690,1562.043579 
	C1062.137817,1526.792480 1054.805542,1491.692383 1047.504517,1456.595215 
	C1044.822144,1443.700806 1041.264282,1430.988525 1038.052124,1417.308350 
	C1036.978638,1408.901489 1036.108887,1401.355225 1034.910522,1393.861572 
	C1031.363892,1371.682739 1027.299438,1349.578613 1024.190552,1327.340210 
	C1021.906433,1311.002075 1020.807068,1294.498413 1019.157654,1277.845825 
	C1018.727356,1278.761353 1018.079529,1279.562866 1017.988647,1280.422974 
	C1017.191162,1287.978760 1016.420105,1295.538696 1015.780640,1303.109253 
	C1014.472900,1318.593506 1012.291260,1334.079712 1012.201721,1349.575073 
	C1012.032837,1378.788330 1010.450317,1408.066406 1013.978210,1437.219727 
	C1015.168274,1447.053467 1015.925903,1456.947510 1017.395325,1466.736694 
	C1018.264099,1472.524658 1020.139099,1478.161499 1021.444214,1484.526611 
	C1017.663025,1490.324219 1014.335449,1495.747070 1010.265808,1500.539795 
	C1001.659058,1510.675781 992.918579,1520.723022 983.777039,1530.375000 
	C964.128357,1551.121582 944.190979,1571.594727 924.141357,1591.465942 
	C909.674194,1553.030029 883.261963,1526.674561 847.571533,1508.981201 
	C862.760437,1491.318115 877.929199,1473.637573 893.153259,1456.004639 
	C896.636658,1451.970093 900.034790,1447.798584 903.951782,1444.214355 
	C912.996155,1435.938232 917.413635,1425.295410 919.871338,1413.753174 
	C926.729797,1381.543213 933.387207,1349.289795 940.005188,1317.029175 
	C950.033386,1268.144165 958.777954,1218.958618 970.259644,1170.419312 
	C982.065063,1120.511108 1002.400391,1073.847900 1031.159180,1031.059692 
	C1036.490723,1023.127197 1043.012329,1016.796143 1050.747925,1011.412231 
	C1072.791260,996.070435 1097.054688,985.009583 1121.924072,975.399231 
	C1145.500610,966.288513 1169.538696,958.372253 1193.940796,950.728882 
	C1185.335815,967.727661 1175.272827,983.498718 1167.207642,1000.232666 
	C1156.024170,1023.436401 1148.086670,1047.666870 1149.537476,1074.181152 
	C1150.585327,1093.332520 1158.507935,1108.004517 1174.909546,1117.872070 
	C1189.285767,1126.521240 1205.366943,1129.205078 1221.766479,1129.882202 
	C1257.853638,1131.372437 1290.684326,1120.899536 1321.097168,1101.982788 
	C1356.134766,1080.189453 1384.361328,1051.246338 1407.960205,1017.777954 
	C1418.266846,1003.161011 1426.926147,987.382507 1436.333496,972.131531 
	C1477.284180,988.266663 1517.105835,1006.472290 1553.567505,1031.620850 
	C1587.112061,1054.757568 1606.020874,1086.164062 1612.216187,1126.213013 
	C1617.764404,1162.078857 1622.249756,1198.022095 1624.321289,1234.249268 
	C1626.468140,1271.794434 1629.344971,1309.329102 1630.234131,1346.907837 
	C1631.588745,1404.160767 1631.919434,1461.448242 1631.816406,1518.719604 
	C1631.779175,1539.298584 1629.098755,1559.865356 1627.870850,1580.452393 
	C1627.012451,1594.843384 1620.535034,1604.140015 1606.622314,1609.602783 
	C1577.204346,1621.153564 1548.252808,1633.887695 1519.043945,1645.976807 
	C1505.850708,1651.437378 1492.499390,1656.515869 1478.327759,1662.120483 
	C1479.903564,1674.734253 1481.144043,1687.205078 1483.071167,1699.568970 
	C1487.268066,1726.495972 1491.814697,1753.368652 1496.083008,1781.103516 
M1479.776978,1386.347168 
	C1478.722290,1381.339600 1477.667603,1376.331909 1476.194336,1369.627197 
	C1475.466431,1367.078613 1474.561523,1364.565796 1474.038208,1361.975830 
	C1469.261353,1338.334839 1464.126953,1314.755005 1459.955200,1291.006348 
	C1456.645630,1272.166138 1454.487915,1253.121460 1451.922729,1234.153442 
	C1450.850098,1226.222290 1450.046875,1218.254639 1449.099487,1210.118164 
	C1448.665527,1210.845703 1448.198730,1211.332520 1448.062500,1211.899048 
	C1442.779175,1233.866089 1441.680542,1256.375488 1440.290771,1278.759644 
	C1439.516235,1291.236084 1441.042480,1303.897705 1442.065674,1316.432373 
	C1443.274658,1331.244629 1444.148438,1346.174316 1446.781616,1360.761841 
	C1452.548340,1392.708862 1461.641357,1423.799683 1474.067871,1455.822021 
	C1474.067871,1474.653076 1474.067871,1493.484131 1474.067871,1512.926147 
	C1483.410889,1507.669312 1488.536011,1499.391357 1491.630249,1489.818970 
	C1496.042114,1476.170532 1495.453613,1462.151855 1492.696411,1448.345581 
	C1488.659180,1428.130371 1483.966187,1408.046265 1479.776978,1386.347168 
z"/>
<path fill="#6E675F" opacity="1.000000" stroke="none" 
	d="
M837.473022,1918.524414 
	C829.938049,1918.900024 822.380371,1919.842163 814.872437,1919.541992 
	C794.589539,1918.730835 774.333801,1917.266479 754.056335,1916.288208 
	C720.142456,1914.651855 686.214050,1913.313599 652.302734,1911.628906 
	C604.104492,1909.234619 555.916199,1906.640137 506.812012,1904.294678 
	C478.634430,1903.038330 451.371277,1901.564209 424.102142,1900.210083 
	C368.909576,1897.469604 313.713715,1894.794067 257.841095,1892.058594 
	C201.838745,1744.205811 145.901154,1596.524048 89.405647,1447.369263 
	C280.075409,1444.257446 469.428131,1441.166992 659.093811,1438.071533 
	C683.807922,1505.456787 708.308716,1572.260376 733.411865,1640.297485 
	C736.008484,1647.381226 737.896118,1653.270386 740.016296,1659.074707 
	C747.240295,1678.851318 754.539185,1698.600586 761.824219,1718.354736 
	C765.232666,1727.597290 768.674988,1736.827271 772.254517,1746.778931 
	C775.606750,1755.657593 778.806335,1763.820435 782.088013,1772.733154 
	C793.682007,1805.395142 805.134644,1837.328979 816.759644,1869.199829 
	C818.880432,1875.014038 821.704407,1880.571777 824.170776,1886.998779 
	C827.080811,1896.390381 829.874023,1905.087280 833.081970,1913.628418 
	C833.800049,1915.540405 835.971008,1916.906860 837.473022,1918.524414 
M384.316559,1680.148682 
	C388.737183,1690.515381 392.437103,1701.167358 399.910278,1710.047852 
	C409.224701,1721.116455 418.946045,1731.681274 433.077606,1736.283203 
	C439.558594,1738.393677 446.869202,1740.344116 453.397614,1739.438965 
	C468.335022,1737.368042 478.382416,1728.109741 483.826569,1713.920776 
	C487.299011,1704.870605 485.571625,1695.486328 486.005890,1686.238525 
	C486.501953,1675.673340 484.087128,1665.597046 479.070740,1656.505981 
	C473.969574,1647.261475 467.984833,1638.453979 461.826752,1629.856445 
	C454.215210,1619.229492 443.416351,1612.651611 431.143036,1608.783691 
	C418.895935,1604.923828 407.310577,1605.525146 396.600983,1614.242798 
	C385.343384,1623.406250 381.339935,1635.495850 379.994507,1649.128296 
	C378.993225,1659.273682 381.540558,1668.906860 384.316559,1680.148682 
z"/>
<path fill="#8E503C" opacity="1.000000" stroke="none" 
	d="
M1435.807861,971.643921 
	C1426.926147,987.382507 1418.266846,1003.161011 1407.960205,1017.777954 
	C1384.361328,1051.246338 1356.134766,1080.189453 1321.097168,1101.982788 
	C1290.684326,1120.899536 1257.853638,1131.372437 1221.766479,1129.882202 
	C1205.366943,1129.205078 1189.285767,1126.521240 1174.909546,1117.872070 
	C1158.507935,1108.004517 1150.585327,1093.332520 1149.537476,1074.181152 
	C1148.086670,1047.666870 1156.024170,1023.436401 1167.207642,1000.232666 
	C1175.272827,983.498718 1185.335815,967.727661 1194.777100,950.821777 
	C1205.919678,947.465210 1216.777710,944.749329 1227.676270,942.206787 
	C1230.522705,941.542725 1233.933594,942.016479 1234.770752,937.168701 
	C1238.803711,936.473633 1242.195190,936.881165 1245.066162,935.845825 
	C1263.233276,929.294006 1280.971313,921.712341 1297.263062,911.209595 
	C1315.548950,899.421265 1332.219116,885.705688 1343.809448,866.988831 
	C1349.328125,858.076965 1355.836304,849.282898 1356.276611,837.891418 
	C1356.383057,837.868286 1356.197388,837.941589 1355.407837,838.312073 
	C1350.073853,844.529419 1345.792725,850.885925 1340.535889,856.294006 
	C1318.025513,879.451965 1290.327637,893.634338 1259.441895,902.042114 
	C1251.599365,904.177063 1243.712769,906.150085 1235.846436,908.197510 
	C1233.207153,907.947449 1230.572510,907.557007 1227.927856,907.469910 
	C1208.733765,906.837219 1193.391602,898.717041 1181.459229,883.815186 
	C1170.708862,870.389587 1163.529663,855.064453 1157.525024,839.107544 
	C1144.700073,805.026123 1136.678345,769.654297 1130.113037,733.972046 
	C1126.446411,714.044617 1124.285278,693.840149 1122.468506,672.901855 
	C1139.368896,676.499207 1155.248291,673.559753 1170.885010,671.157104 
	C1204.245850,666.030884 1237.397583,659.539795 1270.763672,654.451721 
	C1289.583496,651.581848 1300.198853,658.768982 1303.805664,679.955994 
	C1305.519043,690.020386 1305.275269,700.417664 1305.925537,710.663635 
	C1306.108521,713.546204 1306.317993,716.427002 1306.574341,720.169006 
	C1317.239624,718.451904 1327.748657,720.487488 1332.060913,706.836304 
	C1334.245605,699.920471 1340.088623,693.985840 1349.202637,693.787720 
	C1361.348022,693.523804 1366.318115,696.856018 1371.600708,709.457031 
	C1377.964355,724.636658 1379.922974,740.776367 1382.251709,756.846619 
	C1380.728516,765.323730 1379.041016,773.775452 1377.727783,782.285034 
	C1376.368042,791.097351 1374.568237,799.945984 1374.350342,808.812805 
	C1373.230713,854.374390 1376.982666,899.694580 1382.001343,944.928467 
	C1382.108643,945.895386 1382.466064,946.834534 1382.405029,946.592957 
	C1400.551270,955.022522 1417.916748,963.089417 1435.807861,971.643921 
z"/>
<path fill="#3B3F47" opacity="1.000000" stroke="none" 
	d="
M1382.811768,756.327148 
	C1379.922974,740.776367 1377.964355,724.636658 1371.600708,709.457031 
	C1366.318115,696.856018 1361.348022,693.523804 1349.202637,693.787720 
	C1340.088623,693.985840 1334.245605,699.920471 1332.060913,706.836304 
	C1327.748657,720.487488 1317.239624,718.451904 1306.574341,720.169006 
	C1306.317993,716.427002 1306.108521,713.546204 1305.925537,710.663635 
	C1305.275269,700.417664 1305.519043,690.020386 1303.805664,679.955994 
	C1300.198853,658.768982 1289.583496,651.581848 1270.763672,654.451721 
	C1237.397583,659.539795 1204.245850,666.030884 1170.885010,671.157104 
	C1155.248291,673.559753 1139.368896,676.499207 1122.631836,671.990601 
	C1115.317505,664.130676 1113.137329,654.658569 1112.384766,645.024780 
	C1109.948730,613.841248 1112.736572,583.199585 1123.893311,553.719604 
	C1125.995239,548.165894 1128.916870,542.863220 1131.955933,537.738586 
	C1135.604370,531.586304 1140.949951,527.191528 1147.596558,524.308167 
	C1180.191895,510.168274 1213.910278,500.374084 1249.594238,498.874023 
	C1279.765991,497.605652 1308.509155,502.981049 1334.771729,518.905640 
	C1337.669922,520.663025 1341.533691,521.015991 1345.020996,521.576294 
	C1353.183472,522.887756 1361.663330,522.986877 1369.522461,525.270569 
	C1387.637451,530.534424 1398.624023,543.207886 1399.839111,561.973083 
	C1401.340942,585.169250 1402.038086,608.520020 1401.226562,631.739075 
	C1400.064697,664.982361 1396.682495,698.115295 1390.033813,730.788757 
	C1388.315918,739.230713 1385.619019,747.473450 1382.811768,756.327148 
z"/>
<path fill="#FAB46D" opacity="1.000000" stroke="none" 
	d="
M805.058533,2821.816895 
	C814.931335,2845.877197 823.475159,2870.331787 826.936951,2896.271484 
	C828.570435,2908.511475 825.423035,2919.248779 816.863098,2928.363525 
	C807.227478,2938.623291 794.768372,2944.460205 782.162354,2949.542236 
	C768.884766,2954.895752 759.242004,2964.129395 750.729126,2974.929688 
	C744.966797,2982.240479 739.576233,2989.864502 734.340576,2997.566650 
	C714.018494,3027.461914 686.558594,3045.913330 650.495117,3051.595215 
	C622.027710,3056.080566 593.667175,3058.162598 565.217346,3052.081787 
	C553.131226,3049.498535 541.344055,3046.040283 531.131775,3038.633057 
	C516.907471,3028.316406 510.858307,3014.694336 513.569153,2997.090576 
	C516.133118,2980.440430 523.513733,2966.507568 537.483276,2957.207031 
	C554.071228,2946.163086 571.348206,2936.137451 588.496399,2925.956055 
	C604.169189,2916.650879 617.480225,2905.219971 627.665405,2889.741455 
	C643.636902,2865.469482 663.016541,2843.953125 685.789917,2824.160645 
	C726.677246,2835.481934 765.984497,2834.895996 805.058533,2821.816895 
z"/>
<path fill="#FAB46D" opacity="1.000000" stroke="none" 
	d="
M1492.160034,2789.088867 
	C1498.866943,2795.982910 1506.031982,2802.492676 1512.195068,2809.842773 
	C1530.855103,2832.096680 1551.472412,2852.147461 1574.077881,2870.474365 
	C1586.624512,2880.646240 1597.974731,2892.817627 1607.851562,2905.638184 
	C1623.306396,2925.699463 1629.312256,2948.841309 1624.401489,2974.311035 
	C1620.069702,2996.778809 1608.632202,3009.781494 1586.059570,3013.183594 
	C1557.576538,3017.476807 1528.832764,3017.088867 1501.193970,3007.952881 
	C1470.366333,2997.762695 1448.112183,2976.532959 1432.498047,2948.632812 
	C1423.981934,2933.416016 1413.010376,2921.065918 1398.851807,2911.160889 
	C1389.589233,2904.680908 1380.630981,2897.765381 1371.560425,2891.012451 
	C1358.415283,2881.225830 1354.388672,2868.129639 1356.917480,2852.259521 
	C1359.768677,2834.365723 1365.549927,2817.431641 1372.598389,2800.861572 
	C1374.678467,2795.970947 1377.057129,2791.207520 1380.523438,2786.067871 
	C1401.996704,2793.392090 1422.431519,2800.548584 1444.038330,2803.110352 
	C1461.890015,2805.227051 1479.564819,2805.554443 1492.160034,2789.088867 
z"/>
<path fill="#84746B" opacity="1.000000" stroke="none" 
	d="
M1826.509521,2026.803955 
	C1837.665405,2025.897705 1848.959717,2025.929077 1861.197266,2026.022461 
	C1862.140625,2301.275146 1862.140625,2576.465576 1862.140625,2852.371826 
	C1850.339478,2852.371826 1839.225220,2852.371826 1826.647827,2852.371826 
	C1826.647827,2577.245117 1826.647827,2302.493408 1826.509521,2026.803955 
z"/>
<path fill="#827167" opacity="1.000000" stroke="none" 
	d="
M470.684448,2025.879150 
	C475.770477,2049.174316 480.945068,2072.450684 485.860657,2095.781738 
	C486.741180,2099.960938 486.551422,2104.366211 487.271301,2109.333008 
	C487.587952,2117.326172 487.403229,2124.653320 487.402740,2131.980469 
	C487.387634,2367.571777 487.390289,2603.163086 487.390289,2838.754395 
	C487.390289,2843.005615 487.390320,2847.256592 487.390320,2852.071777 
	C475.410187,2852.071777 464.527954,2852.071777 453.640930,2852.074707 
	C453.408173,2851.848877 453.169647,2851.629395 452.955231,2851.388184 
	C452.734009,2851.139893 452.370789,2850.880127 452.354462,2850.608154 
	C452.195557,2847.956055 451.994690,2845.300537 451.994476,2842.645996 
	C451.971252,2571.066162 451.964478,2299.486572 452.847473,2026.913574 
	C459.386963,2025.906616 465.035706,2025.892944 470.684448,2025.879150 
z"/>
<path fill="#8E513C" opacity="1.000000" stroke="none" 
	d="
M772.101929,1746.062988 
	C768.674988,1736.827271 765.232666,1727.597290 761.824219,1718.354736 
	C754.539185,1698.600586 747.240295,1678.851318 740.016296,1659.074707 
	C737.896118,1653.270386 736.008484,1647.381226 733.968872,1640.742310 
	C770.292419,1597.761963 806.660400,1555.569336 843.035217,1513.382690 
	C844.116455,1512.128540 845.270203,1510.937012 846.980835,1509.348755 
	C883.261963,1526.674561 909.674194,1553.030029 923.847412,1592.080078 
	C873.223206,1644.293091 822.662598,1695.177979 772.101929,1746.062988 
z"/>
<path fill="#334866" opacity="1.000000" stroke="none" 
	d="
M470.726379,2024.949219 
	C465.035706,2025.892944 459.386963,2025.906616 452.812805,2025.979248 
	C414.982239,2025.917236 378.077087,2025.793579 341.171967,2025.678345 
	C334.914185,2025.658691 328.656311,2025.675537 321.941650,2025.675537 
	C321.941650,2005.067749 321.941650,1985.245728 321.941650,1964.446289 
	C371.541412,1964.446289 420.668365,1964.446289 470.701233,1964.349121 
	C471.745056,1966.494507 472.367828,1968.833374 471.944519,1970.964600 
	C468.442627,1988.595215 469.681458,2006.303955 470.726379,2024.949219 
z"/>
<path fill="#658EC7" opacity="1.000000" stroke="none" 
	d="
M805.211975,2820.912842 
	C765.984497,2834.895996 726.677246,2835.481934 686.349609,2823.799316 
	C686.502075,2815.031250 687.449951,2806.481689 688.551392,2797.094727 
	C716.602600,2801.125977 744.739868,2801.140381 772.872009,2799.829834 
	C783.392700,2799.339600 793.837158,2797.214844 805.174622,2795.915527 
	C805.810364,2804.000244 805.587891,2812.004639 805.211975,2820.912842 
z"/>
<path fill="#658EC7" opacity="1.000000" stroke="none" 
	d="
M1492.073364,2788.342773 
	C1479.564819,2805.554443 1461.890015,2805.227051 1444.038330,2803.110352 
	C1422.431519,2800.548584 1401.996704,2793.392090 1381.028076,2785.519287 
	C1380.901978,2778.134033 1381.495850,2770.979248 1382.107788,2762.971191 
	C1389.185425,2763.706543 1396.210815,2765.471191 1403.311279,2766.848389 
	C1418.917480,2769.875000 1434.466431,2774.099854 1450.220581,2775.176270 
	C1462.911377,2776.043457 1475.868774,2773.009033 1489.582031,2771.824707 
	C1490.530518,2772.914307 1490.604736,2773.885010 1490.712524,2775.916504 
	C1490.782471,2777.546143 1491.042480,2777.982422 1491.526245,2778.285645 
	C1491.679688,2781.389404 1491.833252,2784.493164 1492.073364,2788.342773 
z"/>
<path fill="#64312A" opacity="1.000000" stroke="none" 
	d="
M1235.812744,909.090942 
	C1243.712769,906.150085 1251.599365,904.177063 1259.441895,902.042114 
	C1290.327637,893.634338 1318.025513,879.451965 1340.535889,856.294006 
	C1345.792725,850.885925 1350.073853,844.529419 1355.401978,838.304626 
	C1356.000000,838.000000 1355.984497,837.987854 1355.984497,837.987854 
	C1355.836304,849.282898 1349.328125,858.076965 1343.809448,866.988831 
	C1332.219116,885.705688 1315.548950,899.421265 1297.263062,911.209595 
	C1280.971313,921.712341 1263.233276,929.294006 1245.066162,935.845825 
	C1242.195190,936.881165 1238.803711,936.473633 1235.031738,936.414246 
	C1234.866821,927.391602 1235.322998,918.687988 1235.812744,909.090942 
z"/>
<path fill="#EBD9D2" opacity="1.000000" stroke="none" 
	d="
M1491.616943,2777.921387 
	C1491.042480,2777.982422 1490.782471,2777.546143 1490.905273,2776.621582 
	C1491.483765,2776.594482 1491.698120,2777.024902 1491.616943,2777.921387 
z"/>
<path fill="#92887F" opacity="1.000000" stroke="none" 
	d="
M838.149780,1918.536865 
	C835.971008,1916.906860 833.800049,1915.540405 833.081970,1913.628418 
	C829.874023,1905.087280 827.080811,1896.390381 824.917053,1886.915039 
	C844.453796,1879.405396 863.186829,1872.660156 881.976562,1866.076782 
	C897.944946,1860.482056 913.978699,1855.074219 930.567017,1849.958008 
	C944.167664,1869.422363 956.082397,1872.122681 976.597656,1859.745972 
	C992.349670,1850.242554 1005.585510,1837.596191 1018.285583,1824.487183 
	C1025.729126,1816.803711 1034.508179,1811.982666 1044.495483,1808.888916 
	C1054.634644,1805.748047 1064.750122,1802.527954 1074.922607,1799.498901 
	C1093.025269,1794.108276 1111.162842,1788.835449 1129.285889,1783.513428 
	C1129.522705,1787.089844 1129.759399,1790.666382 1130.017090,1795.141357 
	C1131.206299,1803.947510 1127.512817,1807.541626 1120.090942,1810.370850 
	C1060.098877,1833.238159 1000.290466,1856.587280 940.427246,1879.792480 
	C910.649841,1891.335205 880.882935,1902.905273 851.089233,1914.405884 
	C847.067749,1915.958130 842.917297,1917.176270 838.149780,1918.536865 
z"/>
<path fill="#8D503C" opacity="1.000000" stroke="none" 
	d="
M1129.920166,1783.078247 
	C1111.162842,1788.835449 1093.025269,1794.108276 1074.922607,1799.498901 
	C1064.750122,1802.527954 1054.634644,1805.748047 1044.495483,1808.888916 
	C1034.508179,1811.982666 1025.729126,1816.803711 1018.285583,1824.487183 
	C1005.585510,1837.596191 992.349670,1850.242554 976.597656,1859.745972 
	C956.082397,1872.122681 944.167664,1869.422363 930.464661,1849.241699 
	C928.582397,1843.743286 926.039246,1841.995605 921.152466,1841.778564 
	C908.332703,1841.208740 905.210571,1834.366089 912.235107,1823.549683 
	C922.366821,1807.948608 931.329956,1791.725220 938.710205,1773.935791 
	C940.147400,1771.581421 941.037537,1769.673096 942.345154,1766.869873 
	C930.936340,1767.012573 919.999329,1771.753540 909.547546,1763.063721 
	C914.728394,1758.383789 919.222046,1754.324585 924.351746,1749.976318 
	C943.896912,1734.667236 963.550659,1720.847778 986.727417,1711.791992 
	C988.199280,1711.156006 989.080078,1710.482544 989.901733,1709.865845 
	C989.842529,1709.922485 989.712219,1709.823242 989.712219,1709.823242 
	C991.363281,1709.854614 993.116943,1710.270142 994.650085,1709.860229 
	C1021.361938,1702.720337 1047.859985,1703.915649 1074.386597,1711.127563 
	C1082.690308,1713.385132 1091.348877,1714.329468 1099.834351,1715.930664 
	C1105.666992,1717.031250 1110.908325,1715.760864 1116.121216,1712.940308 
	C1144.222412,1697.734375 1172.493164,1682.841064 1200.557373,1667.568115 
	C1231.253662,1650.862671 1261.818848,1633.915894 1292.385254,1616.973511 
	C1321.493896,1600.839111 1350.549316,1584.608276 1379.587891,1568.347900 
	C1389.921509,1562.561768 1392.445435,1562.850708 1400.700562,1572.141235 
	C1416.092529,1589.464111 1424.854004,1610.284302 1431.405029,1632.090820 
	C1434.552979,1642.569336 1436.611328,1653.384644 1438.930298,1664.097778 
	C1439.759155,1667.926880 1439.901978,1671.904419 1440.486572,1676.917236 
	C1337.633911,1714.473389 1235.654663,1753.076538 1129.920166,1783.078247 
z"/>
<path fill="#FEFEFE" opacity="1.000000" stroke="none" 
	d="
M986.136230,1711.754639 
	C963.550659,1720.847778 943.896912,1734.667236 923.593628,1749.943115 
	C908.041260,1753.539429 893.876526,1756.852295 879.726685,1760.227417 
	C863.691956,1764.052490 847.670532,1767.933472 830.728516,1771.830078 
	C813.877808,1771.907837 797.941833,1771.945435 782.005859,1771.983154 
	C778.806335,1763.820435 775.606750,1755.657593 772.254517,1746.778931 
	C822.662598,1695.177979 873.223206,1644.293091 924.077820,1592.793945 
	C944.190979,1571.594727 964.128357,1551.121582 983.777039,1530.375000 
	C992.918579,1520.723022 1001.659058,1510.675781 1010.265808,1500.539795 
	C1014.335449,1495.747070 1017.663025,1490.324219 1021.778687,1483.837646 
	C1023.454102,1478.725586 1024.947388,1475.026733 1025.854980,1471.189209 
	C1030.027954,1453.545044 1034.037476,1435.862061 1038.105713,1418.193115 
	C1041.264282,1430.988525 1044.822144,1443.700806 1047.504517,1456.595215 
	C1054.805542,1491.692383 1062.137817,1526.792480 1068.632690,1562.043579 
	C1071.571411,1577.993164 1072.460205,1594.314819 1074.454224,1610.446045 
	C1076.056763,1623.410278 1071.368530,1634.004639 1062.242310,1642.709106 
	C1045.653442,1658.531494 1028.906860,1674.191895 1012.041016,1689.718994 
	C1004.958557,1696.239136 997.405640,1702.248291 989.889404,1709.156494 
	C989.712219,1709.823242 989.842529,1709.922485 989.313477,1709.753662 
	C987.901733,1710.307983 987.018982,1711.031250 986.136230,1711.754639 
z"/>
<path fill="#5176AA" opacity="1.000000" stroke="none" 
	d="
M1473.739746,1453.968872 
	C1461.641357,1423.799683 1452.548340,1392.708862 1446.781616,1360.761841 
	C1444.148438,1346.174316 1443.274658,1331.244629 1442.065674,1316.432373 
	C1441.042480,1303.897705 1439.516235,1291.236084 1440.290771,1278.759644 
	C1441.680542,1256.375488 1442.779175,1233.866089 1448.062500,1211.899048 
	C1448.198730,1211.332520 1448.665527,1210.845703 1449.099487,1210.118164 
	C1450.046875,1218.254639 1450.850098,1226.222290 1451.922729,1234.153442 
	C1454.487915,1253.121460 1456.645630,1272.166138 1459.955200,1291.006348 
	C1464.126953,1314.755005 1469.261353,1338.334839 1474.038208,1361.975830 
	C1474.561523,1364.565796 1475.466431,1367.078613 1476.359619,1371.242188 
	C1476.476074,1377.258789 1476.427246,1381.660400 1476.248047,1386.984497 
	C1475.325195,1409.927490 1474.532471,1431.948242 1473.739746,1453.968872 
z"/>
<path fill="#5176AA" opacity="1.000000" stroke="none" 
	d="
M1038.052124,1417.308350 
	C1034.037476,1435.862061 1030.027954,1453.545044 1025.854980,1471.189209 
	C1024.947388,1475.026733 1023.454102,1478.725586 1021.896179,1483.177368 
	C1020.139099,1478.161499 1018.264099,1472.524658 1017.395325,1466.736694 
	C1015.925903,1456.947510 1015.168274,1447.053467 1013.978210,1437.219727 
	C1010.450317,1408.066406 1012.032837,1378.788330 1012.201721,1349.575073 
	C1012.291260,1334.079712 1014.472900,1318.593506 1015.780640,1303.109253 
	C1016.420105,1295.538696 1017.191162,1287.978760 1017.988647,1280.422974 
	C1018.079529,1279.562866 1018.727356,1278.761353 1019.157654,1277.845825 
	C1020.807068,1294.498413 1021.906433,1311.002075 1024.190552,1327.340210 
	C1027.299438,1349.578613 1031.363892,1371.682739 1034.910522,1393.861572 
	C1036.108887,1401.355225 1036.978638,1408.901489 1038.052124,1417.308350 
z"/>
<path fill="#FEFEFE" opacity="1.000000" stroke="none" 
	d="
M1473.903809,1454.895508 
	C1474.532471,1431.948242 1475.325195,1409.927490 1476.661743,1387.191406 
	C1477.988037,1386.952637 1478.770264,1387.429443 1479.552490,1387.906250 
	C1483.966187,1408.046265 1488.659180,1428.130371 1492.696411,1448.345581 
	C1495.453613,1462.151855 1496.042114,1476.170532 1491.630249,1489.818970 
	C1488.536011,1499.391357 1483.410889,1507.669312 1474.067871,1512.926147 
	C1474.067871,1493.484131 1474.067871,1474.653076 1473.903809,1454.895508 
z"/>
<path fill="#EBD9D2" opacity="1.000000" stroke="none" 
	d="
M1479.664795,1387.126709 
	C1478.770264,1387.429443 1477.988037,1386.952637 1476.791992,1386.269043 
	C1476.427246,1381.660400 1476.476074,1377.258789 1476.568848,1372.090698 
	C1477.667603,1376.331909 1478.722290,1381.339600 1479.664795,1387.126709 
z"/>
<path fill="#5D5854" opacity="1.000000" stroke="none" 
	d="
M782.088013,1772.733032 
	C797.941833,1771.945435 813.877808,1771.907837 831.567627,1772.049072 
	C837.942993,1772.666016 842.560425,1773.430908 847.186829,1773.489258 
	C877.511230,1773.871948 907.837524,1774.101929 938.163208,1774.381836 
	C931.329956,1791.725220 922.366821,1807.948608 912.235107,1823.549683 
	C905.210571,1834.366089 908.332703,1841.208740 921.152466,1841.778564 
	C926.039246,1841.995605 928.582397,1843.743286 929.881226,1848.867432 
	C913.978699,1855.074219 897.944946,1860.482056 881.976562,1866.076782 
	C863.186829,1872.660156 844.453796,1879.405396 824.949951,1886.164185 
	C821.704407,1880.571777 818.880432,1875.014038 816.759644,1869.199829 
	C805.134644,1837.328979 793.682007,1805.395142 782.088013,1772.733032 
z"/>
<path fill="#817066" opacity="1.000000" stroke="none" 
	d="
M384.182190,1679.352661 
	C381.540558,1668.906860 378.993225,1659.273682 379.994507,1649.128296 
	C381.339935,1635.495850 385.343384,1623.406250 396.600983,1614.242798 
	C407.310577,1605.525146 418.895935,1604.923828 431.143036,1608.783691 
	C443.416351,1612.651611 454.215210,1619.229492 461.826752,1629.856445 
	C467.984833,1638.453979 473.969574,1647.261475 479.070740,1656.505981 
	C484.087128,1665.597046 486.501953,1675.673340 486.005890,1686.238525 
	C485.571625,1695.486328 487.299011,1704.870605 483.826569,1713.920776 
	C478.382416,1728.109741 468.335022,1737.368042 453.397614,1739.438965 
	C446.869202,1740.344116 439.558594,1738.393677 433.077606,1736.283203 
	C418.946045,1731.681274 409.224701,1721.116455 399.910278,1710.047852 
	C392.437103,1701.167358 388.737183,1690.515381 384.182190,1679.352661 
z"/>
<path fill="#64312A" opacity="1.000000" stroke="none" 
	d="
M1356.005859,838.007446 
	C1356.197388,837.941589 1356.383057,837.868286 1356.276611,837.891418 
	C1355.984497,837.987854 1356.000000,838.000000 1356.005859,838.007446 
z"/>
<path fill="#658EC7" opacity="1.000000" stroke="none" 
	d="
M938.710205,1773.935791 
	C907.837524,1774.101929 877.511230,1773.871948 847.186829,1773.489258 
	C842.560425,1773.430908 837.942993,1772.666016 832.482361,1772.009033 
	C847.670532,1767.933472 863.691956,1764.052490 879.726685,1760.227417 
	C893.876526,1756.852295 908.041260,1753.539429 922.957520,1750.232178 
	C919.222046,1754.324585 914.728394,1758.383789 909.547546,1763.063721 
	C919.999329,1771.753540 930.936340,1767.012573 942.345154,1766.869873 
	C941.037537,1769.673096 940.147400,1771.581421 938.710205,1773.935791 
z"/>
<path fill="#608CC9" opacity="1.000000" stroke="none" 
	d="
M986.727356,1711.791992 
	C987.018982,1711.031250 987.901733,1710.307983 989.372681,1709.697021 
	C989.080078,1710.482544 988.199280,1711.156006 986.727356,1711.791992 
z"/>
</svg>